<svg version="1.1" xmlns="http://www.w3.org/2000/svg" xmlns:xlink="http://www.w3.org/1999/xlink" x="0px" y="0px"
	 viewBox="0 0 878 546.7" enable-background="new 0 0 878 546.7" xml:space="preserve">
<g id="wappen_neu">
	<g id="bg_Kopie">
		<path fill="#644133" d="M441.4,468.5c84,0,176.9-1.6,336.9,20.6c4.9-51.4,41.8-174.9,41.8-174.9s0,0-7.9-17.4
			c-120.3,38.8-271.9,34.4-370.7,34.4s-250.5,4.3-370.7-34.4c-7.9,17.4-7.9,17.4-7.9,17.4s36.9,123.4,41.8,174.9
			C264.5,466.9,357.4,468.5,441.4,468.5z"/>
	</g>
	<g id="shading_Kopie">
		<path fill="#885845" d="M140.3,480.6c0,0,335.2-61.6,607.5,4.4C655.4,475.3,281.1,453,140.3,480.6z"/>
		<polygon fill="#885845" points="99.2,322 80.2,314.5 78.6,320 88.9,346.9 		"/>
		<path fill="#885845" d="M115,469.8l-1.6-19.2c0,0,30.9,12.7,55.4,14.2C115,469.8,115,469.8,115,469.8z"/>
		<polygon fill="#885845" points="783.5,322 802.5,314.5 804.1,320 793.8,346.9 		"/>
		<path fill="#885845" d="M767.7,469.8l1.6-19.2c0,0-30.9,12.7-55.4,14.2C767.7,469.8,767.7,469.8,767.7,469.8z"/>
		<path fill="#191919" d="M292.2,458.5c23.9-2.1,47.9-3.5,71.8-4.6c12-0.6,24-1,36-1.4c12-0.3,24-0.6,36-0.8c6-0.1,12-0.1,18-0.2
			c6,0,12-0.1,18,0c12,0.1,24,0.2,36,0.6c24,0.7,48,1.8,71.9,4.5c-24-0.6-48-0.7-71.9-0.6l-18,0.1l-18,0.2c-12,0.2-24,0.2-35.9,0.5
			c-12,0.1-24,0.4-35.9,0.5l-36,0.6C340.1,458.1,316.2,458.5,292.2,458.5z"/>
		<path fill="#191919" d="M728.6,336.1c-9.4,3.1-19,5.3-28.7,7.1c-9.7,1.9-19.5,3.2-29.3,4.2c-9.8,1-19.7,1.5-29.6,1.5
			c-2.5,0-4.9,0-7.4-0.1l-7.4-0.4l-3.7-0.2c-1.2-0.1-2.5-0.2-3.7-0.4c-2.5-0.3-4.9-0.5-7.4-0.9c9.9-0.8,19.6-1.2,29.4-2
			c9.8-0.8,19.5-1.6,29.2-2.5c9.7-0.9,19.5-2,29.2-3C709,338.3,718.8,337.1,728.6,336.1z"/>
	</g>
	<g id="outline_Kopie_2">
		<path fill="#191919" d="M782.8,494.8l-5.2-0.7c-149.7-20.7-240.4-20.6-320.4-20.5c-10.6,0-20.9,0-31.5,0
			c-80-0.1-170.7-0.2-320.4,20.5l-5.2,0.7l-0.5-5.2C94.8,439.2,58.3,316.9,58,315.7l-0.5-1.8L68,290.7l4.2,1.4
			c109,35.1,243.7,34.6,342,34.3c9.4,0,18.5-0.1,27.2-0.1c8.7,0,17.8,0,27.2,0.1c98.4,0.4,233.1,0.9,342-34.3l4.2-1.4l10.5,23.2
			l-0.5,1.8c-0.4,1.2-36.8,123.5-41.6,173.9L782.8,494.8z M473.5,463.5c75.6,0,163,1.2,300.3,19.9c6.2-50.7,36.3-153.4,40.9-168.8
			l-5.3-11.7c-109.7,34.2-243.1,33.8-340.9,33.4c-9.4,0-18.5-0.1-27.2-0.1c-8.7,0-17.7,0-27.2,0.1c-97.8,0.4-231.2,0.8-340.9-33.4
			l-5.3,11.7c4.6,15.4,34.7,118.1,40.9,168.8c147.4-20.1,237.3-20,316.7-19.9c10.6,0,20.9,0,31.4,0
			C462.6,463.5,468,463.5,473.5,463.5z"/>
	</g>
	<g id="schrift">
		<g>
			<path fill="#F59C09" d="M117.2,394.9c0-13.7,9.3-26.4,25.3-26.4c15.3,0,26.7,11.5,26.7,26.8c0,13.7-9.2,26.4-25.2,26.4
				C128.8,421.7,117.2,410.3,117.2,394.9z M158.4,411.9c0-15.1-15.5-39.4-25.6-39.4c-2.8,0-4.7,2-4.7,6c0,15.1,15.8,39.4,25.5,39.4
				C156.7,417.8,158.4,415.9,158.4,411.9z"/>
			<path fill="#F59C09" d="M214.8,401.2c0,12.3-6.8,19.8-16.2,19.8c-3.2,0-6-1-8.4-2.5v18.2h5.6v1.1h-23.1v-1.1h3.5v-43.1l-4-3.4
				l18-6.3v6.9c3.7-3.8,8.1-6.2,12.2-6.2C209.4,384.6,214.8,390.4,214.8,401.2z M199.8,405.2c0-9.4-2-14.1-6.7-14.1
				c-1.1,0-2,0.3-2.9,0.7v25.5c1,0.7,2.2,1.1,3.4,1.1C197.2,418.4,199.8,413.6,199.8,405.2z"/>
			<path fill="#F59C09" d="M251.8,414c-2.9,4.5-7.6,7-14.1,7c-9.9,0-18-6.9-18-17.7c0-10.2,6.9-18.7,18.1-18.7
				c6.6,0,11.1,3.9,11.1,9c0,5.8-4.5,10.9-12.9,14.1c4,3.9,9,6.5,13.7,6.5C250.4,414.2,251.1,414.1,251.8,414L251.8,414z
				 M228.4,391.2c0,5.8,3,11.7,7.2,16c2-2.5,2.7-5.3,2.7-8.9c0-6.1-4.1-11.3-7.1-11.3C229.4,387.1,228.4,388.6,228.4,391.2z"/>
			<path fill="#F59C09" d="M297.3,419.2v1.1H277v-1.1h2.8v-21.1c0-5.5-1.3-7.3-4.2-7.3c-1.4,0-2.8,0.4-4.2,1v27.3h2.8v1.1h-20.3
				v-1.1h3.5v-25.6l-4-3.4l18-6.3v7c4.6-3.9,8.6-6.7,13.4-6.7c6,0,9,3.7,9,10.9v24.1H297.3z"/>
			<path fill="#F59C09" d="M365.3,406.8c0,8.3-8.7,13.6-21.4,13.6h-28.1v-1.1h5.6v-45.5l-6.2-3.8h25.3c13.8,0,22,3.8,22,11.6
				c0,6-4.5,9.9-15.5,11.8C357.9,394,365.3,398.8,365.3,406.8z M336.8,371v21.8h1.3c5.7,0,8.3-3.8,8.3-10.9c0-6-1.9-10.9-8.4-10.9
				H336.8z M349.2,407c0-8.7-4.6-13-10.4-13h-2v25.2h1.5C346,419.2,349.2,415.2,349.2,407z"/>
			<path fill="#F59C09" d="M399.7,384.8v18.6h-0.1c-7.3-8.1-10.6-9.9-13-9.5v25.3h5.3v1.1h-22.8v-1.1h3.5v-25.4l-4-3.4l18-6v8.8
				c4-5.3,8.5-8.5,11.8-8.5C398.8,384.6,399.2,384.6,399.7,384.8z"/>
			<path fill="#F59C09" d="M436.1,414c-2.9,4.5-7.6,7-14.1,7c-9.9,0-18-6.9-18-17.7c0-10.2,6.9-18.7,18.1-18.7
				c6.6,0,11.1,3.9,11.1,9c0,5.8-4.5,10.9-12.9,14.1c4,3.9,9,6.5,13.7,6.5C434.7,414.2,435.4,414.1,436.1,414L436.1,414z
				 M412.6,391.2c0,5.8,3,11.7,7.2,16c2-2.5,2.7-5.3,2.7-8.9c0-6.1-4.1-11.3-7.1-11.3C413.7,387.1,412.6,388.6,412.6,391.2z"/>
			<path fill="#F59C09" d="M498.4,386l-4.7,3.4l-16.3,31.9h-1.7l-9.3-23.4l-11.7,23.4h-1.8l-14.3-31.9L434,386h24.4l-4.7,3.4
				l6.4,18.9l5-13.6l-2.9-7.4l13.4-2.7l7.3,23.8l7.3-19l-5.4-3.4H498.4z"/>
			<path fill="#F59C09" d="M528.4,414c-2.9,4.5-7.6,7-14.1,7c-9.9,0-18-6.9-18-17.7c0-10.2,6.9-18.7,18.1-18.7
				c6.6,0,11.1,3.9,11.1,9c0,5.8-4.5,10.9-12.9,14.1c4,3.9,9,6.5,13.7,6.5C527,414.2,527.7,414.1,528.4,414L528.4,414z M504.9,391.2
				c0,5.8,3,11.7,7.2,16c2-2.5,2.7-5.3,2.7-8.9c0-6.1-4.1-11.3-7.1-11.3C506,387.1,504.9,388.6,504.9,391.2z"/>
			<path fill="#F59C09" d="M561,384.8v18.6h-0.1c-7.3-8.1-10.6-9.9-13-9.5v25.3h5.3v1.1h-22.8v-1.1h3.5v-25.4l-4-3.4l18-6v8.8
				c4-5.3,8.5-8.5,11.8-8.5C560.2,384.6,560.6,384.6,561,384.8z"/>
			<path fill="#F59C09" d="M605.3,386l-4.7,3.4l-15.2,30.9l-8.3,18.3l-13.3-9.3l20.4-9.3l-16.5-30.5l-4.8-3.4h24.6l-4.7,3.4
				l7.8,18.4l6.6-18.4l-5.4-3.4H605.3z"/>
			<path fill="#F59C09" d="M674.7,419.2v1.1h-25.8v-1.1h5.7l-5.5-13.2H633l-4.3,13.2h7.2v1.1h-15.5v-1.1h2.9l22.3-50.7h3.6
				l22.2,50.7H674.7z M648.6,404.8l-8.6-20.3l-6.6,20.3H648.6z"/>
			<path fill="#F59C09" d="M718.2,401.2c0,12.3-6.8,19.8-16.2,19.8c-3.2,0-6-1-8.4-2.5v18.2h5.6v1.1H676v-1.1h3.5v-43.1l-4-3.4
				l18-6.3v6.9c3.7-3.8,8.1-6.2,12.2-6.2C712.8,384.6,718.2,390.4,718.2,401.2z M703.2,405.2c0-9.4-2-14.1-6.7-14.1
				c-1.1,0-2,0.3-2.9,0.7v25.5c1,0.7,2.2,1.1,3.4,1.1C700.6,418.4,703.2,413.6,703.2,405.2z"/>
			<path fill="#F59C09" d="M764.1,401.2c0,12.3-6.8,19.8-16.2,19.8c-3.2,0-6-1-8.4-2.5v18.2h5.6v1.1h-23.1v-1.1h3.5v-43.1l-4-3.4
				l18-6.3v6.9c3.7-3.8,8.1-6.2,12.2-6.2C758.7,384.6,764.1,390.4,764.1,401.2z M749.1,405.2c0-9.4-2-14.1-6.7-14.1
				c-1,0-2,0.3-2.9,0.7v25.5c1,0.7,2.2,1.1,3.4,1.1C746.5,418.4,749.1,413.6,749.1,405.2z"/>
		</g>
	</g>
</g>
<g id="bierfass">
	<g id="bg-bierfass">
		<path fill="#644133" d="M440.6,294.2l67.6-1.8l1.6,13.2l34.8,1.1c0,0,5.5-6.3,10-19.8l30.1-10l14.8-152.4c2.6-21.6,0-34.3,0-34.3
			L561,80.6l-2.6-19L511.9,60v16.4c0,0-39.3-6.3-71.3-6.3h0.8c-32,0-71.3,6.3-71.3,6.3V60l-46.4,1.6l-2.6,19l-38.5,9.5
			c0,0-2.6,12.7,0,34.3l14.8,152.4l30.1,10c4.5,13.5,10,19.8,10,19.8l34.8-1.1l1.6-13.2l67.6,1.8H440.6z"/>
	</g>
	<g id="shading">
		<path fill="#885845" d="M441.4,294.2l61.1-1.7l7.3,14.1l32.8,2.4l16.3-19.3l23.8-7.9l4-16.6l-28.8,8.2l-6,19h-42.1l1.3-11.9
			c0,0-54.5,2.1-69.7,0.3c-15.2,1.8-69.7-0.3-69.7-0.3l1.3,11.9h-42.1l-6-19l-28.8-8.2l4,16.6l23.8,7.9l16.3,19.3l32.8-2.4l7.3-14.1
			L441.4,294.2z"/>
		<path fill="#885845" d="M441.4,70c13.5-0.4,68.4,4,68.4,4l3-14l46.1,2.5l4.8,16.6l4.2,4.6l32.4,6.4l-0.7,12.5l-37.4-5.6l-1.8-20.6
			L513.7,74v15.6c0,0-38.7-5.8-72.3-6c-33.6,0.2-72.3,6-72.3,6V74l-46.7,2.4l-1.8,20.6l-37.4,5.6l-0.7-12.5l32.4-6.4l4.2-4.6
			l4.8-16.6L370,60l3,14C373,74,427.9,69.6,441.4,70z"/>
		<path fill="#885845" d="M508.6,267c0,0-2-106.4,0-140s5.1-37.4,5.1-37.4L508.6,267z"/>
		<polygon fill="#885845" points="318.3,108 312.8,151.1 319.9,151.9 		"/>
		<polygon fill="#885845" points="556.1,152.3 558.5,97.7 562.4,152.7 		"/>
		<path fill="#885845" d="M494.2,155.2c0,0-39,4.5-42.2,4.5c-3.2,0-41.1-1.3-61.7-6.1c30.1,1.6,30.1,1.6,30.1,1.6H494.2z"/>
		<path fill="#885845" d="M369.4,234.6c0,0,23.1,6.1,28.5,5.9c-29.3,0.2-29.3,0.2-29.3,0.2L369.4,234.6z"/>
		<path fill="#885845" d="M509.2,215.5c0,0-9.9-1.8-20.6-0.5c-10.7,1.3-31.1,0.6-31.1,0.6l25.8-3.1l18.1-1.5l7.7,0.3V215.5z"/>
		<polygon fill="#885845" points="370.2,145.6 411.2,152.9 368.6,150.7 		"/>
		<path fill="#885845" d="M341.5,153.6c0,0-5.1-42.9-4.4-48.6c-0.8,35.3-0.2,47.9-0.2,47.9L341.5,153.6z"/>
	</g>
	<g id="shading3">
		<path fill="#885845" d="M370.2,192.1c0,0,8.2,5.5,37.9,8.3c29.7,2.9-9.7,11.1-24.9,10.6c-15.2-0.6-16.1,8.2-16.1,8.2L370.2,192.1z
			"/>
		<path fill="#885845" d="M514.9,130c0,0,20.8,8.1,29,6.9c-8.6,7.9-29,12.5-29,12.5V130z"/>
		<polygon fill="#CF8769" points="558.8,278.3 585,273.3 586.5,279.4 557.7,285.8 		"/>
		<path fill="#885845" d="M510.7,245.8c0,0-14.4,5.9-23.6,6s-13.2,2.5-13.2,2.5s10.6,2.9,16.5,2c5.9-0.9,20.3,5.2,20.3,5.2V245.8z"
			/>
		<polygon fill="#885845" points="357.3,72.2 365,169.1 367.1,95.7 367.7,72.2 		"/>
		<polygon fill="#885845" points="591.3,99.2 593.9,146.5 597.3,146.5 599.5,124.3 599.5,99.2 		"/>
	</g>
	<g id="shading2">
		<path fill="#CF8769" d="M283.8,96.6l36.1-7l4-20.2h43.5l1.5,15.4c0,0,60.7-14.2,144,0.5c1.8-16.4,1.8-16.4,1.8-16.4l44,0.5
			l3.6,20.2l38.2,8.1l-1.7-9.5l-35.3-9.1l-4.8-16.6L512.7,60l-3.5,15.9c0,0-60.7-10.4-136.2,0.4c-4-9-9.3-16.6-9.3-16.6l-39.8,2.7
			l-7.5,21.1l-33.9,6.4L283.8,96.6z"/>
		<path fill="#CF8769" d="M297.7,271.6l28.1,7.6l12,19.5l32.5-1l4.5-13.5c0,0,56.1,3.8,136.4,0.9c1.5,13.2,2.6,13.5,2.6,13.5h36
			l-3.9,9.3l-32.1-1.1l-10.4-12.7l-127-1.1l-4.2,12.5l-34.5,2.4l-13.8-21.7l-26.7-9.4L297.7,271.6z"/>
		<path fill="#CF8769" d="M413.9,258c0,0-1.4,28.5,27.5,28.5c26.7,0,27.5-24.8,27.5-30.2C455.8,257.2,413.9,258,413.9,258z"/>
	</g>
	<g id="kreis">
		<circle fill="#885845" cx="441.4" cy="258.3" r="27.5"/>
		<circle fill="#524038" cx="441.4" cy="258.3" r="23.5"/>
		<g id="shading0">
			<path fill="#2E241F" d="M420,256.6c0,0,2.1-17.6,21.4-17.6s21.4,17.6,21.4,17.6l-1.3-10.5L451,235.8l-13.6-0.7l-12.4,6.3
				l-5.8,10.4L420,256.6z"/>
		</g>
		<path fill="#191919" d="M441.4,284.3c-14.3,0-26-11.7-26-26c0-14.3,11.7-26,26-26s26,11.7,26,26
			C467.4,272.6,455.7,284.3,441.4,284.3z M441.4,237.3c-11.6,0-21,9.4-21,21c0,11.6,9.4,21,21,21c11.6,0,21-9.4,21-21
			C462.4,246.7,452.9,237.3,441.4,237.3z"/>
	</g>
	<g id="outlines">
		<path fill="#191919" d="M369.5,292.8c-2.6-18.3-8.4-93-4-216.6l7,0.2c-4.4,123.1,1.4,197.2,3.9,215.4L369.5,292.8z"/>
		<path fill="#191919" d="M323.9,287.6c-10.5-42.2-6-197.5-5.8-204.1l7,0.2c0,1.6-4.7,161,5.6,202.2L323.9,287.6z"/>
		<path fill="#191919" d="M513.5,292.6l-7-0.6c0.1-1,7.8-98,3.7-215.6l7-0.2C521.4,194.3,513.6,291.7,513.5,292.6z"/>
		<path fill="#191919" d="M558.8,287.6l-6.8-1.7c10.3-41.2,5.6-200.6,5.6-202.2l7-0.2C564.8,90.1,569.4,245.5,558.8,287.6z"/>
		<path fill="#191919" d="M380.3,110.1c4-0.6,8-0.9,12-1c4-0.1,8,0,12,0.2c4,0.2,7.9,0.5,11.9,1c4,0.5,7.9,1.1,11.9,2.2
			c-4,0.6-8,0.9-12,1c-4,0.1-8,0-12-0.2c-4-0.2-7.9-0.5-11.9-1C388.2,111.7,384.2,111.1,380.3,110.1z"/>
		<path fill="#191919" d="M367.1,149.1c3.1-0.1,6.2,0,9.3,0.1l9.2,0.3c3.1,0.1,6.2,0.3,9.2,0.5c3.1,0.2,6.2,0.5,9.2,0.9
			c3.1,0.4,6.1,0.9,9.2,1.5l2.3,0.5l2.2,0.4c0.7,0.1,1.5,0.2,2.2,0.3l2.2,0.2c6,0.5,12,0.4,18.1,0.1c6.1-0.3,12.2-0.7,18.3-1.2
			c6.1-0.5,12.3-1,18.5-1.1c6.2-0.1,12.4,0,18.6,0.1c3.1,0,6.2,0.2,9.3,0.5c1.5,0.1,3.1,0.3,4.6,0.5c0.8,0.1,1.5,0.1,2.3,0.5
			c0.4,0.2,0.7,0.4,1.1,0.7c0.4,0.3,0.7,0.7,1.1,1.3l0,0.5c-1.6,0.2-3.1,0.2-4.6,0.2l-4.6,0.1l-9.2,0.3c-6.1,0.3-12.2,0.2-18.3,0.4
			c-6.1,0.1-12.1,0.3-18.3,0.6c-3.1,0.2-6.1,0.2-9.2,0.3c-3.1,0.1-6.2,0-9.3,0l-9.3-0.3l-2.3-0.1c-0.8-0.1-1.5-0.1-2.3-0.1
			c-0.8,0-1.5,0-2.3-0.1l-2.3,0l-2.3-0.1l-1.2,0l-1.2-0.1l-2.3-0.2l-2.3-0.3c-3-0.4-6.1-0.6-9.1-0.9c-6.1-0.6-12.2-1.1-18.3-1.5
			c-3.1-0.2-6.1-0.5-9.1-0.9c-1.5-0.2-3-0.4-4.6-0.6c-0.8-0.1-1.5-0.3-2.2-0.8c-0.7-0.4-1.5-1-2.1-1.9L367.1,149.1z"/>
		<path fill="#191919" d="M411.2,186.3c3.9-0.9,7.9-1.3,11.8-1.7c3.9-0.3,7.9-0.5,11.8-0.6c3.9,0,7.9,0,11.8,0.3
			c3.9,0.3,7.9,0.6,11.8,1.4c-3.9,0.9-7.9,1.3-11.8,1.7c-3.9,0.3-7.9,0.5-11.8,0.6c-3.9,0-7.9-0.1-11.8-0.3
			C419,187.5,415.1,187.1,411.2,186.3z"/>
		<path fill="#191919" d="M513.1,118.4c-6.1,0.1-12.2,0.1-18.4-0.1c-3.1-0.1-6.1-0.2-9.2-0.5c-3.1-0.2-6.1-0.5-9.2-1.2
			c-0.4-0.1-0.6-0.5-0.6-0.9c0.1-0.4,0.4-0.6,0.8-0.6l0,0c3,0.3,6,0.3,9,0.3c3-0.1,6-0.2,9-0.4c6-0.4,12.1-1,18.1-1.7l0,0
			c1.4-0.2,2.6,0.8,2.8,2.2s-0.8,2.6-2.2,2.8C513.3,118.4,513.2,118.4,513.1,118.4z"/>
		<path fill="#191919" d="M335.2,160.9c-0.4-5.2-0.7-10.3-0.9-15.5c-0.2-5.2-0.2-10.3-0.1-15.5c0.1-5.2,0.4-10.3,0.8-15.4
			c0.4-5.1,1-10.3,1.8-15.3c0.1-0.5,0.5-0.8,1-0.7c0.4,0.1,0.7,0.5,0.7,0.9l0,0c-0.5,5.1-0.9,10.2-1,15.3
			c-0.1,5.1-0.1,10.2,0.1,15.3c0.2,5.1,0.5,10.2,0.9,15.3c0.4,5.1,1,10.2,1.7,15.1l0,0c0.2,1.4-0.8,2.6-2.1,2.8
			c-1.4,0.2-2.6-0.8-2.8-2.1C335.2,161,335.2,161,335.2,160.9z"/>
		<path fill="#191919" d="M533.3,292.3c-0.6-3.2-0.8-6.4-1-9.6c-0.1-3.2-0.1-6.3,0-9.5c0.1-3.2,0.3-6.3,0.6-9.4
			c0.3-3.1,0.7-6.3,1.3-9.5c1.1,3.1,1.6,6.3,1.9,9.5c0.3,3.2,0.4,6.4,0.2,9.6c-0.1,3.2-0.4,6.4-0.8,9.5
			C534.9,286.1,534.3,289.2,533.3,292.3z"/>
		<path fill="#191919" d="M369.4,237.2c2.9,0.5,6,0.9,9,1.3c3,0.3,6,0.6,9.1,0.8c6.1,0.4,12.2,0.3,18.2-0.3l0,0
			c0.4,0,0.8,0.2,0.8,0.6c0,0.4-0.2,0.7-0.6,0.8c-6.1,1.3-12.3,1.9-18.5,2.1c-3.1,0.1-6.2,0.1-9.3,0.1c-3.1-0.1-6.2-0.2-9.4-0.4
			c-1.4-0.1-2.4-1.3-2.3-2.7s1.3-2.4,2.7-2.3C369.2,237.2,369.2,237.2,369.4,237.2L369.4,237.2z"/>
		<path fill="#191919" d="M542.6,62c0.6,4.6,1.1,9.1,1.4,13.7c0.4,4.6,0.6,9.1,0.7,13.7c0.1,4.6,0.1,9.1-0.2,13.7
			c-0.3,4.6-0.7,9.1-1.5,13.6c0.4-4.5,0.4-9.1,0.3-13.6c-0.2-4.5-0.6-9-1.1-13.5c-0.5-4.5-1.2-9-1.9-13.4c-0.8-4.4-1.6-8.9-2.6-13.2
			L542.6,62z"/>
		<path fill="#191919" d="M512.2,213.6c-5.7-0.7-11.5-0.9-17.3-0.7c-2.9,0.1-5.8,0.3-8.6,0.7c-2.9,0.4-5.5,1-8.6,1.6
			c-6,0.9-12,1-17.9,0.8c-5.9-0.3-11.8-0.9-17.7-1.8c-0.6-0.1-1-0.6-0.9-1.2c0.1-0.6,0.6-1,1.2-0.9l0,0c5.8,0.8,11.6,1.2,17.4,1.3
			c5.8,0.1,11.7-0.1,17.3-1.2c2.7-0.6,5.7-1.4,8.7-1.9c3-0.5,5.9-0.8,8.9-1c6-0.4,11.9-0.3,18,0.2c1.1,0.1,1.9,1.1,1.8,2.2
			c-0.1,1.1-1.1,1.9-2.2,1.8C512.3,213.6,512.3,213.6,512.2,213.6L512.2,213.6z"/>
	</g>
</g>
<g id="liquid">
	<g id="main">
		<path fill="#F49810" d="M422.1,267c0,0,9.5-3.6,14.4-3.4s8.7,2.1,14.4,3.4c5.7,1.3,9.9,0,9.9,0s-9.5,12.1-11.6,17.8
			c-2.1,5.7-0.7,18.7,0.8,25.3s-0.9,15.6,0,23.7s-5.3,23.2-5.9,27.4c-0.7,4.2-3,9.8-3,9.8l-6.4-11.6c0,0-2.1-8.6-2.9-17.7
			c-0.8-9.1,1.5-12.4,1.3-19c-0.1-6.6-5.1-16.7-4.7-22c0.4-5.3-3.2-18.2-5.4-23.6C420.5,271.8,422.1,267,422.1,267z"/>
	</g>
	<g id="highlights">
		<path fill="#D7CFBC" d="M422.1,267c0,0,5.4-5,16.9-4.2c11.5,0.8,6.5,4,21.7,4.2c-3.3,1.2-11.1,1.7-12.5,1.2
			c-1.5-0.5-13.2-4-16.6-2.6C428.2,266.9,422.1,267,422.1,267z"/>
		<path fill="#D7CFBC" d="M424.4,281.8c0,0,2.9,14.3,2.7,18.5s5.5,16.1,5.6,20.6c0.1,4.5,5-5.2,2.5-11.9c-2.6-6.7-8.9-30.9-7.3-35.6
			C429.5,268.6,422.5,274,424.4,281.8z"/>
		<path fill="#D7CFBC" d="M449.5,340.8c0.5,2.9,0.5,5.8,0.2,8.7c-0.1,1.4-0.4,2.9-0.8,4.3c-0.2,0.7-0.4,1.4-0.7,2.2l-0.4,1.1l-0.4,1
			c-1.2,2.5-2.4,5.1-3.5,7.6c-1.1,2.6-2.2,5.1-2.8,7.9c-0.4-1.4-0.3-2.9-0.2-4.4c0.2-1.5,0.4-2.9,0.8-4.3c0.7-2.8,1.8-5.5,3-8.1
			l0.5-1l0.4-0.9c0.2-0.6,0.5-1.2,0.7-1.9c0.4-1.3,0.8-2.6,1.2-4C448.1,346.4,448.7,343.6,449.5,340.8z"/>
		<path fill="#F59C09" d="M439,278.3c0.1,3.2,0.2,6.3,0.7,9.4c0.4,3.1,1,6.2,2,9c0.3,0.7,0.5,1.4,0.9,2.1c0.3,0.8,0.6,1.5,0.8,2.3
			c0.5,1.6,0.9,3.1,1.2,4.7c0.6,3.2,0.9,6.4,1,9.6c0,3.2-0.2,6.5-0.7,9.7c-0.2,0.8-0.3,1.6-0.5,2.4c-0.2,0.8-0.4,1.6-0.7,2.4
			c-0.5,1.6-1.2,3.1-1.8,4.5c-1.2,2.9-2.4,5.8-3.2,8.8c-0.8,3-1.4,6.1-0.7,9.2c-0.7-1.4-1-3.1-1-4.7c-0.1-1.6,0.1-3.2,0.3-4.8
			c0.5-3.2,1.4-6.3,2.5-9.3c0.3-0.7,0.6-1.5,0.8-2.2c0.2-0.7,0.5-1.4,0.7-2.2c0.2-0.7,0.4-1.5,0.5-2.2c0.2-0.7,0.3-1.5,0.4-2.3
			c0.4-3,0.6-6.1,0.5-9.2c0-3.1-0.3-6.2-0.8-9.2c-0.3-1.5-0.5-3-1-4.5c-0.2-0.7-0.4-1.5-0.7-2.2c-0.2-0.7-0.5-1.6-0.7-2.3
			c-0.9-3.2-1.2-6.4-1.2-9.6C438.2,284.6,438.4,281.4,439,278.3z"/>
		<path fill="#F2F2F2" d="M426.4,293c0.5,2.7,0.9,5.5,1.4,8.2c0.1,0.6,0.3,1.4,0.5,1.8c0,0,0.1,0.3,0.2,0.4c0.1,0.2,0.2,0.3,0.3,0.5
			c0.2,0.3,0.3,0.6,0.5,1c0.6,1.3,1.1,2.6,1.5,3.9c0.9,2.7,1.6,5.4,2.1,8.2c0.5,2.8,0.7,5.7-0.1,8.4c-0.1-2.8-0.8-5.4-1.5-8.1
			c-0.7-2.6-1.6-5.2-2.5-7.8c-0.4-1.3-0.9-2.6-1.4-3.9c-0.1-0.3-0.2-0.6-0.4-0.9c-0.1-0.1-0.1-0.3-0.2-0.4l-0.2-0.5
			c-0.3-0.9-0.4-1.6-0.5-2.3C426,298.6,426.1,295.8,426.4,293z"/>
		<path fill="#F2F2F2" d="M450,336.1c0.3,3.6,0.5,7.1,0.7,10.6l0.2,2.6c0,0.2,0,0.4,0,0.7c0,0.3,0,0.5-0.1,0.8
			c-0.1,0.5-0.2,1-0.3,1.4c-0.5,1.8-1.2,3.4-1.8,5.1c-0.7,1.7-1.4,3.3-2.1,4.9c-0.7,1.6-1.4,3.2-1.8,4.9c-0.3,0.9-0.6,1.8-1,2.6
			c-0.4,0.8-0.8,1.5-1.2,2.3c-0.7,1.6-1,3.3-1.4,5.1c-0.1-1.8-0.1-3.6,0.3-5.4c0.2-0.9,0.6-1.8,0.9-2.6c0.3-0.8,0.5-1.6,0.7-2.4
			c0.4-1.8,1-3.5,1.7-5.2c0.7-1.7,1.3-3.3,2-4.9c0.7-1.6,1.3-3.3,1.9-4.9c0.1-0.4,0.2-0.8,0.3-1.2c0-0.2,0.1-0.4,0.1-0.5
			c0-0.1,0-0.4,0-0.6c0-0.9,0-1.8,0-2.7C449.3,343.2,449.6,339.7,450,336.1z"/>
		<path fill="#F2F2F2" d="M423.5,266c1.3-1.3,3-2.2,4.7-2.8c1.7-0.6,3.6-1,5.4-1.1c1.8-0.2,3.7,0,5.5,0.2c0.9,0.1,1.8,0.3,2.7,0.5
			c0.9,0.3,1.8,0.5,2.6,0.8c-0.9,0-1.8-0.1-2.7-0.1l-2.7-0.1c-0.9,0-1.8-0.1-2.7,0l-1.3,0l-1.3,0.1c-1.8,0.1-3.5,0.4-5.2,0.7
			C426.8,264.7,425.1,265.2,423.5,266z"/>
	</g>
</g>
<g id="helpers">
</g>
</svg>